# Blender v2.90.0 OBJ File: 'dbzDisk.blend'
# www.blender.org
mtllib dbzDiskEdited.mtl
o Circle
v 0.195089 -0.119507 -0.980786
v 0.382682 -0.119508 -0.923880
v 0.555569 -0.119510 -0.831470
v 0.707106 -0.119514 -0.707108
v 0.831469 -0.119521 -0.555571
v 0.923879 -0.119532 -0.382684
v 0.980785 -0.119546 -0.195091
v 1.000000 -0.119564 -0.000001
v 0.980785 -0.119584 0.195089
v 0.923880 -0.119603 0.382683
v 0.831470 -0.119621 0.555570
v 0.707107 -0.119636 0.707106
v 0.555571 -0.119649 0.831469
v 0.382684 -0.119658 0.923879
v 0.195091 -0.119664 0.980785
v 0.000000 -0.119666 1.000000
v -0.195090 -0.119664 0.980785
v -0.382683 -0.119658 0.923880
v -0.555570 -0.119649 0.831470
v -0.707107 -0.119636 0.707107
v -0.831470 -0.119621 0.555570
v -0.923880 -0.119603 0.382683
v -0.980785 -0.119584 0.195090
v -1.000000 -0.119564 -0.000000
v -0.980785 -0.119546 -0.195090
v -0.923880 -0.119532 -0.382683
v -0.831470 -0.119521 -0.555570
v -0.707107 -0.119514 -0.707107
v -0.555570 -0.119510 -0.831470
v -0.382683 -0.119508 -0.923880
v -0.195090 -0.119507 -0.980785
v 0.000000 -0.119507 -1.000000
v -0.000000 -0.355319 -0.006550
v -0.000000 -0.355319 -0.006550
v -0.000000 -0.355319 -0.006550
v -0.000000 -0.355319 -0.006550
v -0.000000 -0.355319 -0.006550
v -0.000000 -0.355319 -0.006550
v -0.000000 -0.355319 -0.006550
v -0.000000 -0.355319 -0.006550
v -0.000000 -0.355319 -0.006550
v -0.000000 -0.355319 -0.006550
v -0.000000 -0.355319 -0.006550
v -0.000000 -0.355319 -0.006550
v -0.000000 -0.355319 -0.006550
v -0.000000 -0.355319 -0.006550
v -0.000000 -0.355319 -0.006550
v -0.000000 -0.355319 -0.006550
v -0.000000 -0.355319 -0.006550
v -0.000000 -0.355319 -0.006550
v -0.000000 -0.355319 -0.006550
v -0.000000 -0.355319 -0.006550
v -0.000000 -0.355319 -0.006550
v -0.000000 -0.355319 -0.006550
v -0.000000 -0.355319 -0.006550
v -0.000000 -0.355319 -0.006550
v -0.000000 -0.355319 -0.006550
v -0.000000 -0.355319 -0.006550
v -0.000000 -0.355319 -0.006550
v -0.000000 -0.355319 -0.006550
v -0.000000 -0.355319 -0.006550
v -0.000000 -0.355319 -0.006550
v -0.000000 -0.355319 -0.006550
v -0.000000 -0.355319 -0.006550
v -0.177974 -0.360236 -0.124066
v -0.197754 -0.360004 -0.087060
v 0.081912 -0.358261 0.192605
v 0.118918 -0.358384 0.172825
v -0.151354 -0.360439 -0.156502
v 0.041758 -0.358185 0.204786
v 0.041758 -0.360808 -0.215082
v -0.000000 -0.360834 -0.219195
v -0.118918 -0.360607 -0.183121
v -0.000000 -0.358159 0.208899
v 0.118918 -0.360607 -0.183122
v 0.081912 -0.360731 -0.202902
v -0.081912 -0.360731 -0.202901
v -0.041759 -0.358185 0.204786
v 0.151354 -0.360439 -0.156502
v -0.041759 -0.360808 -0.215082
v -0.081912 -0.358261 0.192606
v 0.177973 -0.360236 -0.124066
v -0.118918 -0.358384 0.172825
v 0.197753 -0.360004 -0.087060
v -0.151354 -0.358550 0.146206
v 0.209934 -0.359753 -0.046907
v -0.177974 -0.358752 0.113770
v 0.214047 -0.359492 -0.005148
v -0.197754 -0.358982 0.076764
v 0.209934 -0.359232 0.036610
v -0.209934 -0.359232 0.036610
v 0.197753 -0.358982 0.076764
v -0.214047 -0.359492 -0.005148
v 0.177973 -0.358752 0.113770
v -0.209934 -0.359753 -0.046906
v 0.151354 -0.358550 0.146206
v -0.425090 -0.308029 -0.179614
v 0.255626 -0.305682 0.379034
v -0.000000 -0.309231 -0.463650
v 0.176077 -0.309082 -0.428626
v -0.382571 -0.308365 -0.259162
v 0.176078 -0.305503 0.421553
v -0.325350 -0.308660 -0.328886
v 0.089764 -0.305394 0.447737
v 0.089763 -0.309193 -0.454809
v -0.255626 -0.308902 -0.386107
v 0.000000 -0.305357 0.456577
v 0.255625 -0.308902 -0.386107
v -0.176078 -0.309082 -0.428626
v -0.089764 -0.305394 0.447737
v 0.325349 -0.308660 -0.328886
v -0.089764 -0.309193 -0.454809
v -0.176078 -0.305503 0.421553
v 0.382570 -0.308365 -0.259162
v -0.255626 -0.305682 0.379034
v 0.425089 -0.308029 -0.179615
v -0.325350 -0.305922 0.321813
v 0.451273 -0.307665 -0.093300
v -0.382571 -0.306214 0.252089
v 0.460114 -0.307287 -0.003537
v -0.425090 -0.306548 0.172542
v 0.451273 -0.306910 0.086227
v -0.451273 -0.306910 0.086227
v 0.425090 -0.306548 0.172541
v -0.460114 -0.307287 -0.003536
v 0.382571 -0.306214 0.252089
v -0.451273 -0.307665 -0.093300
v 0.325350 -0.305922 0.321813
v -0.611057 -0.245395 -0.255326
v 0.367456 -0.242836 0.547718
v -0.000000 -0.246711 -0.663621
v 0.253107 -0.246548 -0.613275
v -0.549936 -0.245763 -0.369673
v 0.253108 -0.242643 0.608839
v -0.467682 -0.246085 -0.469900
v 0.129034 -0.242524 0.646476
v 0.129032 -0.246669 -0.650912
v -0.367456 -0.246350 -0.552154
v 0.000000 -0.242483 0.659185
v 0.367455 -0.246350 -0.552155
v -0.253108 -0.246548 -0.613274
v -0.129033 -0.242524 0.646476
v 0.467682 -0.246085 -0.469901
v -0.129033 -0.246669 -0.650912
v -0.253108 -0.242643 0.608839
v 0.549936 -0.245763 -0.369674
v -0.367456 -0.242836 0.547719
v 0.611056 -0.245395 -0.255326
v -0.467682 -0.243097 0.465465
v 0.648694 -0.244998 -0.131252
v -0.549936 -0.243415 0.365238
v 0.661403 -0.244585 -0.002218
v -0.611057 -0.243779 0.250890
v 0.648694 -0.244174 0.126815
v -0.648694 -0.244174 0.126815
v 0.611057 -0.243779 0.250890
v -0.661403 -0.244585 -0.002218
v 0.549937 -0.243415 0.365238
v -0.648694 -0.244998 -0.131251
v 0.467683 -0.243097 0.465464
v -0.788114 -0.182127 -0.327410
v 0.473929 -0.180713 0.708321
v -0.000000 -0.182873 -0.854011
v 0.326446 -0.182780 -0.789077
v -0.709284 -0.182334 -0.474891
v 0.326448 -0.180609 0.787151
v -0.603196 -0.182517 -0.604159
v 0.166422 -0.180545 0.835694
v 0.166420 -0.182850 -0.837620
v -0.473928 -0.182668 -0.710246
v 0.000000 -0.180523 0.852086
v 0.473927 -0.182668 -0.710247
v -0.326447 -0.182780 -0.789076
v -0.166421 -0.180545 0.835695
v 0.603195 -0.182517 -0.604159
v -0.166421 -0.182850 -0.837620
v -0.326447 -0.180609 0.787151
v 0.709283 -0.182334 -0.474892
v -0.473928 -0.180714 0.708321
v 0.788113 -0.182127 -0.327411
v -0.603196 -0.180855 0.602234
v 0.836657 -0.181904 -0.167385
v -0.709284 -0.181029 0.472966
v 0.853048 -0.181674 -0.000963
v -0.788114 -0.181228 0.325485
v 0.836657 -0.181445 0.165458
v -0.836657 -0.181445 0.165459
v 0.788114 -0.181228 0.325484
v -0.853048 -0.181674 -0.000963
v 0.709284 -0.181028 0.472965
v -0.836657 -0.181904 -0.167384
v 0.603197 -0.180855 0.602233
v 0.084210 -0.562977 0.025192
vt 0.967588 0.206027
vt 0.998126 0.206027
vt 0.998126 0.016628
vt 0.967588 0.016628
vt 0.570587 0.206027
vt 0.601125 0.206028
vt 0.601125 0.016628
vt 0.570587 0.016628
vt 0.020894 0.206027
vt 0.051432 0.206027
vt 0.051432 0.016628
vt 0.020894 0.016628
vt 0.631664 0.206027
vt 0.631664 0.016628
vt 0.173586 0.206027
vt 0.204124 0.206027
vt 0.204124 0.016628
vt 0.173586 0.016628
vt 0.081970 0.206027
vt 0.081970 0.016628
vt 0.662202 0.206027
vt 0.662203 0.016628
vt 0.234663 0.206027
vt 0.265201 0.206027
vt 0.265201 0.016628
vt 0.234663 0.016628
vt 0.112509 0.206027
vt 0.112509 0.016628
vt 0.692741 0.206027
vt 0.692741 0.016628
vt 0.295740 0.206028
vt 0.295740 0.016628
vt 0.143048 0.206027
vt 0.143048 0.016628
vt 0.723280 0.206027
vt 0.723280 0.016628
vt 0.326279 0.206027
vt 0.326279 0.016628
vt 0.753818 0.206027
vt 0.753818 0.016628
vt 0.356817 0.206027
vt 0.356817 0.016628
vt 0.784357 0.206027
vt 0.784357 0.016628
vt 0.387356 0.206027
vt 0.387356 0.016628
vt 0.814895 0.206027
vt 0.814895 0.016628
vt 0.417894 0.206027
vt 0.417894 0.016628
vt 0.845434 0.206027
vt 0.845434 0.016628
vt 0.448433 0.206027
vt 0.448433 0.016628
vt 0.875972 0.206027
vt 0.875972 0.016628
vt 0.478971 0.206027
vt 0.478971 0.016628
vt 0.906511 0.206027
vt 0.906511 0.016628
vt 0.509510 0.206027
vt 0.509510 0.016628
vt 0.937049 0.206027
vt 0.937049 0.016628
vt 0.540048 0.206027
vt 0.540048 0.016628
vt 0.540048 0.323391
vt 0.570587 0.323391
vt 0.937049 0.323391
vt 0.967588 0.323391
vt 0.509510 0.323391
vt 0.906511 0.323390
vt 0.478971 0.323391
vt 0.875972 0.323390
vt 0.448433 0.323391
vt 0.845434 0.323391
vt 0.417894 0.323391
vt 0.814895 0.323391
vt 0.387356 0.323391
vt 0.784357 0.323391
vt 0.356817 0.323390
vt 0.753818 0.323390
vt 0.204124 0.323391
vt 0.234663 0.323391
vt 0.326279 0.323391
vt 0.723280 0.323390
vt 0.143048 0.323391
vt 0.173586 0.323391
vt 0.295740 0.323391
vt 0.692741 0.323391
vt 0.112509 0.323390
vt 0.265201 0.323391
vt 0.662202 0.323390
vt 0.081970 0.323390
vt 0.631664 0.323391
vt 0.051432 0.323391
vt 0.601125 0.323391
vt 0.020894 0.323391
vt 0.998126 0.323390
vt 0.967588 0.400239
vt 0.998126 0.400239
vt 0.570587 0.400239
vt 0.601125 0.400239
vt 0.020894 0.400239
vt 0.051432 0.400239
vt 0.631664 0.400239
vt 0.173586 0.400239
vt 0.204124 0.400239
vt 0.081970 0.400239
vt 0.662202 0.400239
vt 0.234663 0.400239
vt 0.265201 0.400239
vt 0.112509 0.400239
vt 0.692741 0.400239
vt 0.295740 0.400239
vt 0.143048 0.400239
vt 0.723280 0.400239
vt 0.326279 0.400239
vt 0.753818 0.400239
vt 0.356817 0.400239
vt 0.784357 0.400239
vt 0.387356 0.400239
vt 0.814895 0.400239
vt 0.417894 0.400239
vt 0.845434 0.400239
vt 0.448433 0.400239
vt 0.875972 0.400239
vt 0.478971 0.400239
vt 0.906511 0.400239
vt 0.509510 0.400239
vt 0.937049 0.400239
vt 0.540048 0.400239
vt 0.540048 0.526756
vt 0.570587 0.526757
vt 0.937049 0.526756
vt 0.967588 0.526756
vt 0.509510 0.526756
vt 0.906511 0.526756
vt 0.478971 0.526756
vt 0.875972 0.526756
vt 0.448433 0.526756
vt 0.845434 0.526756
vt 0.417894 0.526756
vt 0.814895 0.526756
vt 0.387356 0.526756
vt 0.784357 0.526756
vt 0.356817 0.526756
vt 0.753818 0.526756
vt 0.204124 0.526756
vt 0.234663 0.526757
vt 0.326279 0.526756
vt 0.723280 0.526756
vt 0.143048 0.526756
vt 0.173586 0.526756
vt 0.295740 0.526756
vt 0.692741 0.526756
vt 0.112509 0.526756
vt 0.265201 0.526756
vt 0.662202 0.526756
vt 0.081970 0.526756
vt 0.631664 0.526756
vt 0.051432 0.526756
vt 0.601126 0.526756
vt 0.020894 0.526756
vt 0.998126 0.526756
vt 0.967588 0.982851
vt 0.998126 0.982854
vt 0.570587 0.982849
vt 0.601125 0.982849
vt 0.020894 0.982852
vt 0.051432 0.982852
vt 0.631664 0.982852
vt 0.173586 0.982852
vt 0.204124 0.982851
vt 0.081970 0.982851
vt 0.662203 0.982851
vt 0.234663 0.982851
vt 0.265201 0.982851
vt 0.112509 0.982851
vt 0.692741 0.982851
vt 0.295740 0.982854
vt 0.143048 0.982851
vt 0.723280 0.982851
vt 0.326279 0.982854
vt 0.753818 0.982851
vt 0.356817 0.982851
vt 0.784357 0.982854
vt 0.387356 0.982849
vt 0.814895 0.982854
vt 0.417894 0.982852
vt 0.845434 0.982852
vt 0.448433 0.982852
vt 0.875972 0.982851
vt 0.478971 0.982849
vt 0.906511 0.982854
vt 0.509510 0.982852
vt 0.937049 0.982851
vt 0.540048 0.982852
vn 0.0174 -0.9997 0.0155
vn -0.0092 -0.9999 -0.0110
vn 0.0152 -0.9997 0.0188
vn -0.0057 -0.9999 -0.0124
vn -0.0019 -0.9997 0.0259
vn 0.0125 -0.9997 0.0215
vn -0.0019 -0.9999 -0.0132
vn -0.0093 -0.9997 0.0237
vn 0.0093 -0.9997 0.0237
vn 0.0019 -0.9999 -0.0132
vn -0.0125 -0.9997 0.0215
vn 0.0057 -0.9997 0.0252
vn 0.0057 -0.9999 -0.0124
vn -0.0152 -0.9997 0.0188
vn 0.0019 -0.9997 0.0259
vn 0.0092 -0.9999 -0.0110
vn -0.0174 -0.9997 0.0155
vn -0.0057 -0.9997 0.0252
vn 0.0124 -0.9999 -0.0089
vn -0.0188 -0.9998 0.0120
vn 0.0151 -0.9999 -0.0062
vn -0.0195 -0.9998 0.0082
vn 0.0173 -0.9998 -0.0030
vn -0.0195 -0.9998 0.0043
vn 0.0187 -0.9998 0.0005
vn -0.0187 -0.9998 0.0005
vn 0.0195 -0.9998 0.0043
vn -0.0173 -0.9998 -0.0030
vn 0.0195 -0.9998 0.0082
vn -0.0151 -0.9999 -0.0062
vn 0.0188 -0.9998 0.0120
vn -0.0124 -0.9999 -0.0089
vn 0.1304 -0.9779 0.1636
vn -0.2005 -0.9781 -0.0561
vn 0.1593 -0.9779 0.1355
vn -0.2078 -0.9780 -0.0157
vn 0.1823 -0.9779 0.1022
vn -0.2071 -0.9780 0.0251
vn 0.1984 -0.9780 0.0649
vn -0.1984 -0.9780 0.0649
vn 0.2071 -0.9780 0.0251
vn -0.1823 -0.9779 0.1022
vn 0.2078 -0.9780 -0.0157
vn -0.1593 -0.9779 0.1355
vn 0.2005 -0.9781 -0.0561
vn -0.1304 -0.9779 0.1636
vn 0.0616 -0.9782 -0.1982
vn 0.1854 -0.9781 -0.0944
vn -0.0967 -0.9778 0.1857
vn -0.0208 -0.9782 -0.2065
vn 0.1630 -0.9782 -0.1290
vn -0.0595 -0.9778 0.2008
vn -0.0616 -0.9782 -0.1982
vn 0.1341 -0.9782 -0.1587
vn -0.0201 -0.9778 0.2085
vn -0.0999 -0.9782 -0.1820
vn 0.0999 -0.9782 -0.1820
vn 0.0201 -0.9778 0.2085
vn -0.1341 -0.9782 -0.1587
vn 0.0208 -0.9782 -0.2065
vn 0.0595 -0.9778 0.2008
vn -0.1630 -0.9782 -0.1290
vn 0.0967 -0.9778 0.1857
vn -0.1854 -0.9781 -0.0944
vn -0.2653 -0.9542 -0.1383
vn 0.1390 -0.9546 0.2634
vn -0.2331 -0.9541 -0.1878
vn 0.0855 -0.9547 0.2852
vn 0.0297 -0.9540 -0.2982
vn -0.1917 -0.9541 -0.2301
vn 0.0288 -0.9547 0.2963
vn 0.1427 -0.9541 -0.2635
vn -0.1427 -0.9541 -0.2635
vn -0.0288 -0.9547 0.2963
vn 0.1917 -0.9541 -0.2301
vn -0.0880 -0.9540 -0.2865
vn -0.0855 -0.9547 0.2852
vn 0.2331 -0.9541 -0.1878
vn -0.0297 -0.9540 -0.2982
vn -0.1390 -0.9546 0.2634
vn 0.2653 -0.9542 -0.1383
vn 0.0880 -0.9540 -0.2865
vn -0.1873 -0.9546 0.2317
vn 0.2871 -0.9542 -0.0836
vn -0.2287 -0.9545 0.1911
vn 0.2977 -0.9543 -0.0259
vn -0.2616 -0.9545 0.1432
vn 0.2968 -0.9544 0.0327
vn -0.2846 -0.9544 0.0898
vn 0.2846 -0.9544 0.0898
vn -0.2968 -0.9544 0.0327
vn 0.2616 -0.9545 0.1432
vn -0.2977 -0.9543 -0.0259
vn 0.2287 -0.9545 0.1911
vn -0.2871 -0.9542 -0.0836
vn 0.1873 -0.9546 0.2317
vn 0.1947 -0.9512 0.2393
vn -0.3020 -0.9491 -0.0895
vn 0.2382 -0.9509 0.1975
vn -0.3125 -0.9495 -0.0287
vn 0.2729 -0.9506 0.1479
vn -0.3109 -0.9499 0.0327
vn 0.2975 -0.9502 0.0923
vn -0.2975 -0.9502 0.0923
vn 0.3109 -0.9499 0.0327
vn -0.2729 -0.9506 0.1479
vn 0.3125 -0.9495 -0.0287
vn -0.2382 -0.9509 0.1975
vn 0.3020 -0.9491 -0.0895
vn -0.1947 -0.9512 0.2393
vn 0.0932 -0.9477 -0.3051
vn 0.2796 -0.9487 -0.1474
vn -0.1443 -0.9514 0.2720
vn -0.0315 -0.9477 -0.3177
vn 0.2461 -0.9484 -0.1999
vn -0.0887 -0.9516 0.2944
vn -0.0932 -0.9477 -0.3051
vn 0.2027 -0.9481 -0.2449
vn -0.0299 -0.9516 0.3057
vn -0.1510 -0.9479 -0.2805
vn 0.1510 -0.9479 -0.2805
vn 0.0299 -0.9516 0.3057
vn -0.2027 -0.9481 -0.2449
vn 0.0315 -0.9477 -0.3177
vn 0.0887 -0.9516 0.2944
vn -0.2461 -0.9484 -0.1999
vn 0.1443 -0.9514 0.2720
vn -0.2796 -0.9487 -0.1474
vn -0.3487 -0.9186 -0.1858
vn 0.1804 -0.9237 0.3380
vn -0.3068 -0.9180 -0.2512
vn 0.1109 -0.9240 0.3660
vn 0.0392 -0.9166 -0.3978
vn -0.2526 -0.9175 -0.3072
vn 0.0374 -0.9241 0.3803
vn 0.1882 -0.9171 -0.3515
vn -0.1882 -0.9171 -0.3515
vn -0.0374 -0.9241 0.3803
vn 0.2526 -0.9175 -0.3072
vn -0.1161 -0.9168 -0.3821
vn -0.1109 -0.9240 0.3660
vn 0.3068 -0.9180 -0.2512
vn -0.0392 -0.9166 -0.3978
vn -0.1804 -0.9237 0.3380
vn 0.3487 -0.9186 -0.1858
vn 0.1161 -0.9168 -0.3821
vn -0.2434 -0.9233 0.2971
vn 0.3767 -0.9193 -0.1137
vn -0.2976 -0.9228 0.2447
vn 0.3899 -0.9201 -0.0379
vn -0.3408 -0.9222 0.1827
vn 0.3881 -0.9208 0.0388
vn -0.3714 -0.9215 0.1132
vn 0.3714 -0.9215 0.1132
vn -0.3881 -0.9208 0.0388
vn 0.3408 -0.9222 0.1827
vn -0.3899 -0.9201 -0.0379
vn 0.2976 -0.9228 0.2447
vn -0.3767 -0.9193 -0.1137
vn 0.2434 -0.9233 0.2971
usemtl None
s off
f 66/1/1 65/2/1 59/3/1 58/4/1
f 68/5/2 67/6/2 46/7/2 45/8/2
f 65/9/3 69/10/3 60/11/3 59/12/3
f 67/6/4 70/13/4 47/14/4 46/7/4
f 72/15/5 71/16/5 33/17/5 64/18/5
f 69/10/6 73/19/6 61/20/6 60/11/6
f 70/13/7 74/21/7 48/22/7 47/14/7
f 76/23/8 75/24/8 35/25/8 34/26/8
f 73/19/9 77/27/9 62/28/9 61/20/9
f 74/21/10 78/29/10 49/30/10 48/22/10
f 75/24/11 79/31/11 36/32/11 35/25/11
f 77/27/12 80/33/12 63/34/12 62/28/12
f 78/29/13 81/35/13 50/36/13 49/30/13
f 79/31/14 82/37/14 37/38/14 36/32/14
f 80/33/15 72/15/15 64/18/15 63/34/15
f 81/35/16 83/39/16 51/40/16 50/36/16
f 82/37/17 84/41/17 38/42/17 37/38/17
f 71/16/18 76/23/18 34/26/18 33/17/18
f 83/39/19 85/43/19 52/44/19 51/40/19
f 84/41/20 86/45/20 39/46/20 38/42/20
f 85/43/21 87/47/21 53/48/21 52/44/21
f 86/45/22 88/49/22 40/50/22 39/46/22
f 87/47/23 89/51/23 54/52/23 53/48/23
f 88/49/24 90/53/24 41/54/24 40/50/24
f 89/51/25 91/55/25 55/56/25 54/52/25
f 90/53/26 92/57/26 42/58/26 41/54/26
f 91/55/27 93/59/27 56/60/27 55/56/27
f 92/57/28 94/61/28 43/62/28 42/58/28
f 93/59/29 95/63/29 57/64/29 56/60/29
f 94/61/30 96/65/30 44/66/30 43/62/30
f 95/63/31 66/1/31 58/4/31 57/64/31
f 96/65/32 68/5/32 45/8/32 44/66/32
f 128/67/33 98/68/33 68/5/33 96/65/33
f 127/69/34 97/70/34 66/1/34 95/63/34
f 126/71/35 128/67/35 96/65/35 94/61/35
f 125/72/36 127/69/36 95/63/36 93/59/36
f 124/73/37 126/71/37 94/61/37 92/57/37
f 123/74/38 125/72/38 93/59/38 91/55/38
f 122/75/39 124/73/39 92/57/39 90/53/39
f 121/76/40 123/74/40 91/55/40 89/51/40
f 120/77/41 122/75/41 90/53/41 88/49/41
f 119/78/42 121/76/42 89/51/42 87/47/42
f 118/79/43 120/77/43 88/49/43 86/45/43
f 117/80/44 119/78/44 87/47/44 85/43/44
f 116/81/45 118/79/45 86/45/45 84/41/45
f 115/82/46 117/80/46 85/43/46 83/39/46
f 105/83/47 100/84/47 76/23/47 71/16/47
f 114/85/48 116/81/48 84/41/48 82/37/48
f 113/86/49 115/82/49 83/39/49 81/35/49
f 112/87/50 99/88/50 72/15/50 80/33/50
f 111/89/51 114/85/51 82/37/51 79/31/51
f 110/90/52 113/86/52 81/35/52 78/29/52
f 109/91/53 112/87/53 80/33/53 77/27/53
f 108/92/54 111/89/54 79/31/54 75/24/54
f 107/93/55 110/90/55 78/29/55 74/21/55
f 106/94/56 109/91/56 77/27/56 73/19/56
f 100/84/57 108/92/57 75/24/57 76/23/57
f 104/95/58 107/93/58 74/21/58 70/13/58
f 103/96/59 106/94/59 73/19/59 69/10/59
f 99/88/60 105/83/60 71/16/60 72/15/60
f 102/97/61 104/95/61 70/13/61 67/6/61
f 101/98/62 103/96/62 69/10/62 65/9/62
f 98/68/63 102/97/63 67/6/63 68/5/63
f 97/70/64 101/99/64 65/2/64 66/1/64
f 129/100/65 133/101/65 101/99/65 97/70/65
f 130/102/66 134/103/66 102/97/66 98/68/66
f 133/104/67 135/105/67 103/96/67 101/98/67
f 134/103/68 136/106/68 104/95/68 102/97/68
f 131/107/69 137/108/69 105/83/69 99/88/69
f 135/105/70 138/109/70 106/94/70 103/96/70
f 136/106/71 139/110/71 107/93/71 104/95/71
f 132/111/72 140/112/72 108/92/72 100/84/72
f 138/109/73 141/113/73 109/91/73 106/94/73
f 139/110/74 142/114/74 110/90/74 107/93/74
f 140/112/75 143/115/75 111/89/75 108/92/75
f 141/113/76 144/116/76 112/87/76 109/91/76
f 142/114/77 145/117/77 113/86/77 110/90/77
f 143/115/78 146/118/78 114/85/78 111/89/78
f 144/116/79 131/107/79 99/88/79 112/87/79
f 145/117/80 147/119/80 115/82/80 113/86/80
f 146/118/81 148/120/81 116/81/81 114/85/81
f 137/108/82 132/111/82 100/84/82 105/83/82
f 147/119/83 149/121/83 117/80/83 115/82/83
f 148/120/84 150/122/84 118/79/84 116/81/84
f 149/121/85 151/123/85 119/78/85 117/80/85
f 150/122/86 152/124/86 120/77/86 118/79/86
f 151/123/87 153/125/87 121/76/87 119/78/87
f 152/124/88 154/126/88 122/75/88 120/77/88
f 153/125/89 155/127/89 123/74/89 121/76/89
f 154/126/90 156/128/90 124/73/90 122/75/90
f 155/127/91 157/129/91 125/72/91 123/74/91
f 156/128/92 158/130/92 126/71/92 124/73/92
f 157/129/93 159/131/93 127/69/93 125/72/93
f 158/130/94 160/132/94 128/67/94 126/71/94
f 159/131/95 129/100/95 97/70/95 127/69/95
f 160/132/96 130/102/96 98/68/96 128/67/96
f 192/133/97 162/134/97 130/102/97 160/132/97
f 191/135/98 161/136/98 129/100/98 159/131/98
f 190/137/99 192/133/99 160/132/99 158/130/99
f 189/138/100 191/135/100 159/131/100 157/129/100
f 188/139/101 190/137/101 158/130/101 156/128/101
f 187/140/102 189/138/102 157/129/102 155/127/102
f 186/141/103 188/139/103 156/128/103 154/126/103
f 185/142/104 187/140/104 155/127/104 153/125/104
f 184/143/105 186/141/105 154/126/105 152/124/105
f 183/144/106 185/142/106 153/125/106 151/123/106
f 182/145/107 184/143/107 152/124/107 150/122/107
f 181/146/108 183/144/108 151/123/108 149/121/108
f 180/147/109 182/145/109 150/122/109 148/120/109
f 179/148/110 181/146/110 149/121/110 147/119/110
f 169/149/111 164/150/111 132/111/111 137/108/111
f 178/151/112 180/147/112 148/120/112 146/118/112
f 177/152/113 179/148/113 147/119/113 145/117/113
f 176/153/114 163/154/114 131/107/114 144/116/114
f 175/155/115 178/151/115 146/118/115 143/115/115
f 174/156/116 177/152/116 145/117/116 142/114/116
f 173/157/117 176/153/117 144/116/117 141/113/117
f 172/158/118 175/155/118 143/115/118 140/112/118
f 171/159/119 174/156/119 142/114/119 139/110/119
f 170/160/120 173/157/120 141/113/120 138/109/120
f 164/150/121 172/158/121 140/112/121 132/111/121
f 168/161/122 171/159/122 139/110/122 136/106/122
f 167/162/123 170/160/123 138/109/123 135/105/123
f 163/154/124 169/149/124 137/108/124 131/107/124
f 166/163/125 168/161/125 136/106/125 134/103/125
f 165/164/126 167/162/126 135/105/126 133/104/126
f 162/134/127 166/163/127 134/103/127 130/102/127
f 161/136/128 165/165/128 133/101/128 129/100/128
f 26/166/129 27/167/129 165/165/129 161/136/129
f 13/168/130 14/169/130 166/163/130 162/134/130
f 27/170/131 28/171/131 167/162/131 165/164/131
f 14/169/132 15/172/132 168/161/132 166/163/132
f 32/173/133 1/174/133 169/149/133 163/154/133
f 28/171/134 29/175/134 170/160/134 167/162/134
f 15/172/135 16/176/135 171/159/135 168/161/135
f 2/177/136 3/178/136 172/158/136 164/150/136
f 29/175/137 30/179/137 173/157/137 170/160/137
f 16/176/138 17/180/138 174/156/138 171/159/138
f 3/178/139 4/181/139 175/155/139 172/158/139
f 30/179/140 31/182/140 176/153/140 173/157/140
f 17/180/141 18/183/141 177/152/141 174/156/141
f 4/181/142 5/184/142 178/151/142 175/155/142
f 31/182/143 32/173/143 163/154/143 176/153/143
f 18/183/144 19/185/144 179/148/144 177/152/144
f 5/184/145 6/186/145 180/147/145 178/151/145
f 1/174/146 2/177/146 164/150/146 169/149/146
f 19/185/147 20/187/147 181/146/147 179/148/147
f 6/186/148 7/188/148 182/145/148 180/147/148
f 20/187/149 21/189/149 183/144/149 181/146/149
f 7/188/150 8/190/150 184/143/150 182/145/150
f 21/189/151 22/191/151 185/142/151 183/144/151
f 8/190/152 9/192/152 186/141/152 184/143/152
f 22/191/153 23/193/153 187/140/153 185/142/153
f 9/192/154 10/194/154 188/139/154 186/141/154
f 23/193/155 24/195/155 189/138/155 187/140/155
f 10/194/156 11/196/156 190/137/156 188/139/156
f 24/195/157 25/197/157 191/135/157 189/138/157
f 11/196/158 12/198/158 192/133/158 190/137/158
f 25/197/159 26/166/159 161/136/159 191/135/159
f 12/198/160 13/168/160 162/134/160 192/133/160
l 64 193
